<svg width="71" height="71" viewBox="0 0 71 71" fill="none" xmlns="http://www.w3.org/2000/svg">
<g clip-path="url(#clip0_40_158)">
<path d="M0.5 35.5271V0.5271H35.5H70.5V35.5271V70.5271H35.5H0.5V35.5271ZM31.1438 64.7574C35.3533 64.0299 37.8886 61.3381 38.4519 56.9981C38.5086 56.5615 38.5494 51.3881 38.5513 44.4148L38.5544 32.5729H35.2997H32.0451L32.0433 43.7639C32.0423 50.462 32.0017 55.3341 31.9421 55.8996C31.7449 57.7725 31.0446 58.684 29.5616 58.9983C27.4611 59.4435 25.8968 58.6007 24.6125 56.3318C24.4488 56.0427 24.2676 55.8061 24.2098 55.8061C24.115 55.8061 19.1929 58.7383 18.9933 58.9137C18.7851 59.0966 20.0317 61.0034 21.0035 61.9886C23.39 64.408 27.1791 65.4426 31.1438 64.7574H31.1438ZM56.3298 64.809C59.0065 64.4717 61.1882 63.4375 62.7875 61.748C63.4428 61.0557 63.689 60.7008 64.0851 59.877C64.7357 58.5243 64.8968 57.84 64.9612 56.1566C65.0777 53.1094 64.2726 50.9543 62.3213 49.0903C60.9226 47.7541 59.159 46.722 55.829 45.2907C52.4139 43.8228 51.3633 43.1515 50.8627 42.1175C50.5151 41.3994 50.5331 40.3139 50.9052 39.5562C51.4563 38.4338 52.52 37.9155 54.0884 38.0049C55.583 38.0901 56.6251 38.7203 57.535 40.089L57.9889 40.7718L60.2822 39.3011C61.5434 38.4922 62.6909 37.7403 62.832 37.6301L63.0886 37.4298L62.5232 36.5917C61.1058 34.4906 59.2299 33.1567 56.8599 32.5648C55.6629 32.2658 52.9769 32.1884 51.6731 32.4154C49.5253 32.7892 48.005 33.5425 46.6058 34.9262C45.3393 36.1788 44.6546 37.4324 44.2998 39.148C44.0499 40.3565 44.1505 42.6504 44.5053 43.834C45.4125 46.8603 47.4507 48.8103 51.6394 50.6594C52.4566 51.0202 53.7328 51.5841 54.4754 51.9125C57.4676 53.2359 58.4152 54.1844 58.4152 55.8561C58.4152 57.4027 57.4302 58.479 55.5715 58.9634C54.576 59.2228 52.6773 59.1311 51.6348 58.7733C50.2139 58.2857 48.8529 57.1886 47.9176 55.7768C47.648 55.3699 47.4874 55.2144 47.3795 55.2558C47.069 55.375 42.1595 58.2513 42.1595 58.3141C42.1595 58.5437 43.6713 60.5975 44.3211 61.2507C47.2028 64.1476 51.4926 65.4187 56.3298 64.809Z" fill="#EED94D"/>
<path d="M27.5887 64.9044C25.0185 64.7155 22.6657 63.6737 21.0035 61.9886C20.0318 61.0035 18.7852 59.0966 18.9934 58.9137C19.193 58.7384 24.1151 55.8061 24.2098 55.8061C24.2676 55.8061 24.4489 56.0427 24.6126 56.3318C25.8968 58.6007 27.4611 59.4435 29.5616 58.9983C31.0447 58.684 31.7449 57.7725 31.9421 55.8996C32.0017 55.3342 32.0423 50.462 32.0434 43.7639L32.0451 32.5729H35.2998H38.5544L38.5513 44.4148C38.5495 51.3882 38.5087 56.5616 38.452 56.9982C37.7395 62.487 33.7915 65.3604 27.5887 64.9044H27.5887ZM52.8681 64.9115C48.4654 64.6053 45.0322 62.724 42.8484 59.4208C42.4695 58.8478 42.1596 58.3498 42.1596 58.3141C42.1596 58.2513 47.069 55.375 47.3795 55.2559C47.4874 55.2144 47.648 55.3699 47.9176 55.7768C48.853 57.1886 50.214 58.2857 51.6348 58.7734C52.6774 59.1312 54.5761 59.2228 55.5716 58.9634C57.4302 58.479 58.4153 57.4027 58.4153 55.8562C58.4153 54.1845 57.4676 53.2359 54.4754 51.9125C53.7328 51.5841 52.4566 51.0202 51.6394 50.6595C47.4507 48.8103 45.4125 46.8603 44.5053 43.8341C44.1505 42.6504 44.0499 40.3565 44.2998 39.148C44.6546 37.4324 45.3394 36.1788 46.6059 34.9263C48.005 33.5425 49.5253 32.7892 51.6731 32.4154C52.9769 32.1885 55.663 32.2658 56.8599 32.5648C59.2299 33.1568 61.1059 34.4906 62.5233 36.5918L63.0887 37.4298L62.832 37.6301C62.6909 37.7403 61.5435 38.4922 60.2822 39.3011L57.989 40.7718L57.5351 40.089C56.6252 38.7203 55.583 38.0901 54.0885 38.0049C52.52 37.9155 51.4563 38.4339 50.9052 39.5562C50.6656 40.0442 50.623 40.2515 50.6301 40.8941C50.6505 42.71 51.5038 43.4316 55.8291 45.2907C59.1591 46.722 60.9226 47.7541 62.3213 49.0903C64.2726 50.9544 65.0777 53.1094 64.9612 56.1566C64.8968 57.8401 64.7357 58.5243 64.0852 59.8771C62.4067 63.3672 58.1477 65.2787 52.8681 64.9115V64.9115Z" fill="#31322F"/>
</g>
<defs>
<clipPath id="clip0_40_158">
<rect width="70" height="70" fill="white" transform="translate(0.5 0.5271)"/>
</clipPath>
</defs>
</svg>
