<svg width="700" height="700" viewBox="0 0 700 700" fill="none" xmlns="http://www.w3.org/2000/svg">
<path d="M0 248.89C0 161.769 0 118.21 16.9545 84.9347C31.8682 55.6652 55.6652 31.8682 84.9347 16.9545C118.21 0 161.769 0 248.89 0H451.11C538.23 0 581.79 0 615.065 16.9545C644.335 31.8682 668.133 55.6652 683.045 84.9347C700 118.21 700 161.769 700 248.89V451.11C700 538.23 700 581.79 683.045 615.065C668.133 644.335 644.335 668.133 615.065 683.045C581.79 700 538.23 700 451.11 700H248.89C161.769 700 118.21 700 84.9347 683.045C55.6652 668.133 31.8682 644.335 16.9545 615.065C0 581.79 0 538.23 0 451.11V248.89Z" fill="white"/>
<path d="M501.288 163.074L351.61 279.885L198.511 163.074V163.105L198.696 163.263V326.83L349.885 446.165L501.288 331.437V163.074Z" fill="#EA4335"/>
<path d="M540.578 134.66L501.27 163.073V331.437L624.958 236.475V179.268C624.958 179.268 609.945 97.5644 540.578 134.66Z" fill="#FBBC05"/>
<path d="M501.27 331.438V549.81H596.07C596.07 549.81 623.048 547.033 624.988 516.283V236.475L501.27 331.438Z" fill="#34A853"/>
<path d="M198.703 550.002V326.83L198.511 326.672L198.703 550.002Z" fill="#C5221F"/>
<path d="M198.503 163.101L159.412 134.846C90.0448 97.7503 75 179.423 75 179.423V236.628L198.503 326.668V163.101Z" fill="#C5221F"/>
<path d="M198.511 163.11V326.678L198.703 326.835V163.268L198.511 163.11Z" fill="#C5221F"/>
<path d="M75 236.67V516.477C76.9115 547.26 103.918 550.007 103.918 550.007H198.719L198.503 326.677L75 236.67Z" fill="#4285F4"/>
</svg>
