<svg width="87" height="87" viewBox="0 0 87 87" fill="none" xmlns="http://www.w3.org/2000/svg">
<g clip-path="url(#clip0_40_153)">
<path d="M12.4857 77.9303L5.58472 0.5271H81.4152L74.5068 77.918L43.4536 86.5271L12.4857 77.9303Z" fill="#264DE4"/>
<path d="M68.5925 72.9902L74.4963 6.85583H43.5V79.9467L68.5925 72.9902Z" fill="#2965F1"/>
<path d="M21.4053 35.5637L22.2561 45.0568H43.4999V35.5637H21.4053ZM20.5586 25.8425H43.4999V16.3492H19.6956L20.5586 25.8425ZM43.4999 60.2185L43.4583 60.2296L32.8856 57.3748L32.2099 49.8034H22.68L24.0102 64.7091L43.4562 70.1077L43.4999 70.0954V60.2185Z" fill="#EBEBEB"/>
<path d="M43.4673 35.5637V45.0568H55.1571L54.0552 57.3687L43.4673 60.2264V70.1029L62.9288 64.7091L63.0716 63.1052L65.3022 38.1128L65.534 35.5637L67.2478 16.3492H43.4673V25.8425H56.8442L55.9801 35.5637H43.4673Z" fill="white"/>
</g>
<defs>
<clipPath id="clip0_40_153">
<rect width="86" height="86" fill="white" transform="translate(0.5 0.5271)"/>
</clipPath>
</defs>
</svg>
