<svg width="71" height="107" viewBox="0 0 71 107" fill="none" xmlns="http://www.w3.org/2000/svg">
<g clip-path="url(#clip0_40_163)">
<path d="M35.5 53.6132C35.5 48.9719 37.3437 44.5207 40.6256 41.2388C43.9075 37.9569 48.3587 36.1132 53 36.1132C57.6413 36.1132 62.0925 37.9569 65.3744 41.2388C68.6563 44.5207 70.5 48.9719 70.5 53.6132C70.5 58.2544 68.6563 62.7056 65.3744 65.9875C62.0925 69.2694 57.6413 71.1132 53 71.1132C48.3587 71.1132 43.9075 69.2694 40.6256 65.9875C37.3437 62.7056 35.5 58.2544 35.5 53.6132Z" fill="#1ABCFE"/>
<path d="M0.5 88.613C0.5 83.9717 2.34374 79.5206 5.62563 76.2387C8.90752 72.9568 13.3587 71.113 18 71.113H35.5V88.613C35.5 93.2543 33.6563 97.7055 30.3744 100.987C27.0925 104.269 22.6413 106.113 18 106.113C13.3587 106.113 8.90752 104.269 5.62563 100.987C2.34374 97.7055 0.5 93.2543 0.5 88.613H0.5Z" fill="#0ACF83"/>
<path d="M35.5 1.11316V36.1132H53C57.6413 36.1132 62.0925 34.2694 65.3744 30.9875C68.6563 27.7056 70.5 23.2544 70.5 18.6132C70.5 13.9719 68.6563 9.52068 65.3744 6.23879C62.0925 2.9569 57.6413 1.11316 53 1.11316L35.5 1.11316Z" fill="#FF7262"/>
<path d="M0.5 18.6132C0.5 23.2544 2.34374 27.7056 5.62563 30.9875C8.90752 34.2694 13.3587 36.1132 18 36.1132H35.5V1.11316H18C13.3587 1.11316 8.90752 2.9569 5.62563 6.23879C2.34374 9.52068 0.5 13.9719 0.5 18.6132H0.5Z" fill="#F24E1E"/>
<path d="M0.5 53.6132C0.5 58.2544 2.34374 62.7056 5.62563 65.9875C8.90752 69.2694 13.3587 71.1132 18 71.1132H35.5V36.1132H18C13.3587 36.1132 8.90752 37.9569 5.62563 41.2388C2.34374 44.5207 0.5 48.9719 0.5 53.6132H0.5Z" fill="#A259FF"/>
</g>
<defs>
<clipPath id="clip0_40_163">
<rect width="70" height="105.921" fill="white" transform="translate(0.5 0.5271)"/>
</clipPath>
</defs>
</svg>
